<?xml version="1.0" standalone="no"?>
<!DOCTYPE svg PUBLIC "-//W3C//DTD SVG 20010904//EN"
 "http://www.w3.org/TR/2001/REC-SVG-20010904/DTD/svg10.dtd">
<svg version="1.0" xmlns="http://www.w3.org/2000/svg"
 width="512.000000pt" height="512.000000pt" viewBox="0 0 512.000000 512.000000"
 preserveAspectRatio="xMidYMid meet">
<metadata>
Created by potrace 1.14, written by Peter Selinger 2001-2017
</metadata>
<g transform="translate(0.000000,512.000000) scale(0.100000,-0.100000)"
fill="#000000" stroke="none">
<path d="M2197 4283 c-1 0 -36 -4 -78 -7 -42 -4 -87 -9 -100 -11 -13 -3 -37
-8 -54 -11 -224 -39 -469 -139 -666 -271 -434 -290 -727 -773 -775 -1278 -3
-33 -7 -70 -9 -83 l-4 -22 2047 2 2047 3 -1 25 c-1 31 -13 129 -19 161 -3 13
-7 41 -11 64 -21 150 -116 396 -216 561 -96 161 -240 331 -378 449 -267 229
-612 373 -985 411 -57 6 -793 13 -798 7z m140 -283 c145 -55 175 -89 138 -159
-27 -54 -60 -54 -206 1 -119 45 -142 65 -142 120 0 37 41 78 78 78 14 0 73
-18 132 -40z m733 26 c9 -4 21 -16 28 -27 19 -29 93 -200 98 -224 15 -75 -88
-126 -140 -70 -36 39 -118 239 -110 270 13 51 69 74 124 51z m-1372 -253 c21
-29 25 -60 10 -90 -10 -21 -41 -42 -127 -85 -63 -32 -125 -58 -138 -58 -14 0
-37 13 -53 29 -23 22 -28 35 -25 61 6 48 28 67 149 125 94 46 113 52 140 44
17 -5 37 -17 44 -26z m2106 -35 c43 -38 41 -70 -11 -198 -42 -100 -52 -117
-82 -132 -57 -28 -116 8 -115 71 0 52 89 255 117 269 35 17 64 14 91 -10z
m-1225 -163 c24 -12 32 -27 49 -92 36 -138 44 -181 37 -203 -11 -34 -46 -60
-81 -60 -54 0 -71 24 -104 150 -16 63 -30 125 -30 138 0 29 51 82 80 82 11 0
34 -7 49 -15z m826 -218 c20 -17 27 -32 27 -60 0 -21 -5 -44 -12 -52 -22 -26
-219 -145 -240 -145 -41 0 -77 28 -84 63 -12 62 -7 67 138 159 100 63 131 70
171 35z m-1454 -71 c90 -28 118 -41 127 -58 27 -56 14 -104 -34 -124 -32 -14
-42 -12 -152 22 -64 20 -127 45 -139 57 -26 24 -31 81 -9 110 14 18 62 37 81
31 6 -1 62 -19 126 -38z m2140 -99 c25 -19 41 -57 35 -83 -13 -52 -108 -233
-129 -246 -49 -33 -127 8 -127 66 0 46 104 254 132 266 32 12 70 11 89 -3z
m-2721 -12 c30 -15 51 -63 42 -96 -6 -26 -169 -207 -193 -214 -51 -17 -109 27
-109 82 0 34 1 35 142 194 44 50 72 58 118 34z m2105 -164 c83 -22 114 -35
131 -54 40 -46 14 -120 -46 -132 -26 -5 -221 38 -258 57 -20 10 -52 56 -52 73
0 15 32 65 47 74 28 16 59 13 178 -18z m-1055 -41 c42 -6 87 -13 101 -15 62
-12 96 -52 84 -103 -12 -58 -55 -76 -150 -60 -16 3 -52 9 -80 13 -91 12 -116
24 -132 62 -12 29 -12 41 -2 65 13 32 54 58 83 52 11 -2 54 -8 96 -14z"/>
<path d="M707 2413 c-60 -20 -135 -86 -164 -144 -80 -162 10 -357 184 -402 38
-9 443 -12 1844 -12 1677 1 1797 2 1845 18 145 49 223 210 175 361 -22 70
-107 156 -176 178 -45 15 -218 16 -1855 17 -1634 0 -1810 -2 -1853 -16z"/>
<path d="M524 1635 c20 -180 118 -376 260 -519 142 -143 309 -229 516 -267 98
-17 2416 -17 2520 1 298 50 543 227 682 490 40 75 84 210 96 291 l8 55 -447 0
-447 -1 -118 -100 c-65 -55 -122 -105 -128 -111 -6 -5 -45 -39 -86 -74 -41
-36 -88 -77 -105 -91 -45 -40 -204 -178 -260 -226 -54 -46 -93 -55 -131 -29
-17 12 -78 111 -182 296 -10 19 -33 59 -51 88 -17 29 -31 55 -31 58 0 2 -11
21 -24 42 -14 20 -38 62 -55 92 l-30 55 -996 0 -997 1 6 -51z"/>
<path d="M2710 1682 c0 -2 25 -47 55 -100 31 -54 61 -106 67 -117 52 -92 111
-191 118 -198 6 -7 126 86 160 123 3 3 39 34 80 70 41 36 77 67 80 70 3 3 34
30 70 60 82 70 102 90 93 92 -18 3 -723 4 -723 0z"/>
</g>
</svg>
